Coordinates
version=1
nRows=8
nColumns=27
inDegrees=yes

Units are S.I. units (second, meters, Newtons, ...)
If the header above contains a line with 'inDegrees', this indicates whether rotational values are in degrees (yes) or radians (no).

endheader
time	pelvis_rotation	pelvis_tilt	pelvis_list	pelvis_tx	pelvis_ty	pelvis_tz	hip_flexion_r	hip_adduction_r	hip_rotation_r	knee_angle_r	knee_rotation_r	knee_adduction_r	knee_angle_r_beta	ankle_angle_r	subtalar_angle_r	mtp_angle_r	hip_flexion_l	hip_adduction_l	hip_rotation_l	knee_angle_l	knee_rotation_l	knee_adduction_l	knee_angle_l_beta	ankle_angle_l	subtalar_angle_l	mtp_angle_l
      5.33500000	      6.08920980	    -36.35933651	      4.51130326	     -0.01826392	      0.66632125	     -1.17632870	     97.75872745	    -38.85394970	      3.55677049	     72.63503044	      0.00000000	      0.00000000	      1.26772043	      1.97225540	      0.00000000	      0.00000000	     96.14398890	    -21.80636629	      5.94736098	     67.58773667	      0.00000000	      0.00000000	      1.17962854	      0.42523810	      0.00000000	      0.00000000
      5.34000000	      6.01164395	    -36.29480604	      4.48497239	     -0.01778195	      0.66710337	     -1.17654230	     97.51625622	    -38.81381673	      3.45781786	     72.46646606	      0.00000000	      0.00000000	      1.26477843	      1.91205001	      0.00000000	      0.00000000	     95.92374495	    -21.84892198	      5.88841069	     67.48362853	      0.00000000	      0.00000000	      1.17781151	      0.46982155	      0.00000000	      0.00000000
      5.34500000	      5.97110601	    -36.20735317	      4.47442093	     -0.01724980	      0.66786659	     -1.17675469	     97.25742406	    -38.82060516	      3.35051879	     72.31251987	      0.00000000	      0.00000000	      1.26209156	      1.86757199	      0.00000000	      0.00000000	     95.68573635	    -21.86892109	      5.81470579	     67.37824205	      0.00000000	      0.00000000	      1.17597217	      0.49382607	      0.00000000	      0.00000000
      5.35000000	      5.86942192	    -36.12871526	      4.43082659	     -0.01673031	      0.66859095	     -1.17691107	     97.00603234	    -38.75857981	      3.25184941	     72.16282506	      0.00000000	      0.00000000	      1.25947889	      1.81870782	      0.00000000	      0.00000000	     95.46137426	    -21.94797644	      5.74988081	     67.28715156	      0.00000000	      0.00000000	      1.17438234	      0.53180317	      0.00000000	      0.00000000
      5.35500000	      5.85937825	    -36.04015555	      4.46362411	     -0.01618681	      0.66928290	     -1.17710529	     96.79211898	    -38.79112612	      3.19582308	     72.03576107	      0.00000000	      0.00000000	      1.25726121	      1.80320374	      0.00000000	      0.00000000	     95.21249485	    -21.93718379	      5.66457006	     67.17870463	      0.00000000	      0.00000000	      1.17248958	      0.54174116	      0.00000000	      0.00000000
      5.36000000	      5.83583654	    -35.95903861	      4.43847719	     -0.01568570	      0.66998272	     -1.17728444	     96.52948315	    -38.80885117	      3.06628499	     71.88800625	      0.00000000	      0.00000000	      1.25468240	      1.75787157	      0.00000000	      0.00000000	     95.00295256	    -21.93813100	      5.63044031	     67.07859928	      0.00000000	      0.00000000	      1.17074242	      0.56254382	      0.00000000	      0.00000000
      5.36500000	      5.76758831	    -35.86680498	      4.42487340	     -0.01515032	      0.67064378	     -1.17744350	     96.29079845	    -38.78112467	      2.98913428	     71.75500611	      0.00000000	      0.00000000	      1.25236111	      1.73338374	      0.00000000	      0.00000000	     94.76322881	    -21.98448187	      5.55891299	     66.98847032	      0.00000000	      0.00000000	      1.16916937	      0.59600385	      0.00000000	      0.00000000
      5.37000000	      5.73307699	    -35.77666155	      4.40760960	     -0.01459891	      0.67128582	     -1.17758920	     96.04004230	    -38.78726426	      2.89076537	     71.62960909	      0.00000000	      0.00000000	      1.25017252	      1.70356551	      0.00000000	      0.00000000	     94.54697933	    -22.00729381	      5.50237020	     66.90778661	      0.00000000	      0.00000000	      1.16776117	      0.62972484	      0.00000000	      0.00000000
